HIERARCHY
ROOT ROOT
{
	OFFSET 0.000000 56.020000 -5.659234
	CHANNELS 6 Xposition Yposition Zposition Xrotation Yrotation Zrotation 
	JOINT C_spine0001_bind_JNT
	{
		OFFSET 0.000000 1.618999 0.000000
		CHANNELS 3 Xrotation Yrotation Zrotation
		JOINT C_spine0002_bind_JNT
		{
			OFFSET 0.000000 4.942001 0.000001
			CHANNELS 3 Xrotation Yrotation Zrotation
			JOINT C_spine0003_bind_JNT
			{
				OFFSET 0.000000 4.942001 -0.000000
				CHANNELS 3 Xrotation Yrotation Zrotation
				JOINT C_neck0001_bind_JNT
				{
					OFFSET 0.000000 17.026009 -0.000000
					CHANNELS 3 Xrotation Yrotation Zrotation
					JOINT C_neck0002_bind_JNT
					{
						OFFSET 0.000000 3.249985 0.000000
						CHANNELS 3 Xrotation Yrotation Zrotation
						JOINT C_head_bind_JNT
						{
							OFFSET 0.000000 5.278008 0.000000
							CHANNELS 3 Xrotation Yrotation Zrotation
							End Site
							{
								OFFSET 0.000000 0.000000 0.000000
							}
						}
					}
				}
				JOINT L_clavicle_bind_JNT
				{
					OFFSET 4.590000 12.067001 0.834000
					CHANNELS 3 Xrotation Yrotation Zrotation
					JOINT L_armUpper0001_bind_JNT
					{
						OFFSET 7.812635 0.512001 -3.452945
						CHANNELS 3 Xrotation Yrotation Zrotation
						JOINT L_armLower0001_bind_JNT
						{
							OFFSET 15.265892 -6.552116 -0.058157
							CHANNELS 3 Xrotation Yrotation Zrotation
							JOINT L_hand0001_bind_JNT
							{
								OFFSET 14.747667 -6.369995 5.049225
								CHANNELS 3 Xrotation Yrotation Zrotation
								End Site
								{
									OFFSET 0.000000 0.000000 0.000000
								}
							}
						}
					}
				}
				JOINT R_clavicle_bind_JNT
				{
					OFFSET -4.590000 12.067001 0.834000
					CHANNELS 3 Xrotation Yrotation Zrotation
					JOINT R_armUpper0001_bind_JNT
					{
						OFFSET -7.812635 0.512001 -3.452945
						CHANNELS 3 Xrotation Yrotation Zrotation
						JOINT R_armLower0001_bind_JNT
						{
							OFFSET -15.265890 -6.552124 -0.058160
							CHANNELS 3 Xrotation Yrotation Zrotation
							JOINT R_hand0001_bind_JNT
							{
								OFFSET -14.746784 -6.369629 5.048937
								CHANNELS 3 Xrotation Yrotation Zrotation
								End Site
								{
									OFFSET 0.000000 0.000000 0.000000
								}
							}
						}
					}
				}
			}
		}
	}
	JOINT C_pelvis0001_bind_JNT
	{
		OFFSET -0.000000 0.000000 0.000000
		CHANNELS 3 Xrotation Yrotation Zrotation
		JOINT L_legUpper0001_bind_JNT
		{
			OFFSET 6.599999 -6.027000 0.539000
			CHANNELS 3 Xrotation Yrotation Zrotation
			JOINT L_legLower0001_bind_JNT
			{
				OFFSET -0.140713 -19.187443 0.040261
				CHANNELS 3 Xrotation Yrotation Zrotation
				JOINT L_foot0001_bind_JNT
				{
					OFFSET -0.132215 -18.028637 -1.138370
					CHANNELS 3 Xrotation Yrotation Zrotation
					JOINT L_foot0002_bind_JNT
					{
						OFFSET 0.007014 -4.693133 9.886524
						CHANNELS 3 Xrotation Yrotation Zrotation
						End Site
						{
							OFFSET 0.000000 0.000000 0.000000
						}
					}
				}
			}
		}
		JOINT R_legUpper0001_bind_JNT
		{
			OFFSET -6.599999 -6.027000 0.539000
			CHANNELS 3 Xrotation Yrotation Zrotation
			JOINT R_legLower0001_bind_JNT
			{
				OFFSET 0.140710 -19.187164 0.040550
				CHANNELS 3 Xrotation Yrotation Zrotation
				JOINT R_foot0001_bind_JNT
				{
					OFFSET 0.132215 -18.028633 -1.138362
					CHANNELS 3 Xrotation Yrotation Zrotation
					JOINT R_foot0002_bind_JNT
					{
						OFFSET -0.007014 -4.693128 9.886505
						CHANNELS 3 Xrotation Yrotation Zrotation
						End Site
						{
							OFFSET 0.000000 0.000000 0.000000
						}
					}
				}
			}
		}
	}
}
MOTION
Frames: 12
Frame Time: 0.033333
-4.045584 47.814526 11.187828 0.009579 20.163040 -0.017331 -3.409380 -21.826916 0.671810 15.033995 1.081121 5.749084 5.684247 1.571464 2.199313 -1.522845 0.422911 2.507668 0.262874 -4.426378 -0.229131 8.703771 -0.397653 -4.103399 -1.232267 10.373495 0.662605 1.615749 3.542766 -60.642494 18.929676 -14.088519 2.630944 8.703180 -36.397915 -19.826860 0.336160 -10.754601 0.827210 -1.720827 -4.653958 55.496910 8.991750 8.624707 1.483423 3.331197 26.841936 20.377207 -1.206295 -21.458673 2.018348 -8.415536 -1.188099 8.971362 16.436508 8.150345 -2.343210 1.310748 11.721676 -8.184808 -4.764764 0.001681 -0.491205 -13.589125 -1.138197 1.031333 24.413061 -8.590514 3.934668 -10.755551 -0.205029 -2.715606 0.204375 0.209513 -0.324675 
-4.023067 47.694679 10.426287 0.007864 20.315018 -0.023932 -3.580446 -21.495317 0.695433 14.816977 1.324078 5.728373 5.805494 1.696651 2.131398 -1.807703 0.403649 2.557847 0.373002 -4.340494 -0.424251 8.697754 -0.460240 -3.983030 -1.309766 10.421932 0.720494 2.250713 4.080788 -60.485039 19.166328 -14.197977 2.465099 8.447339 -36.399502 -20.157923 0.314416 -10.925829 0.820565 -1.736343 -4.389389 55.583389 9.545867 8.065834 1.047847 3.584734 27.211506 20.775103 -1.444198 -21.145983 1.882951 -7.762663 -1.289067 8.491199 13.667648 8.556398 -2.047347 0.530861 11.491254 -8.258630 -2.990669 -0.123928 -0.749088 -14.638160 -0.804774 1.022715 24.979734 -8.838841 4.110744 -10.211452 -0.418803 -2.681624 0.382782 0.200007 -0.402899 
-4.011151 47.689396 9.944660 0.012061 20.621975 -0.019873 -3.653790 -21.105930 0.631184 14.875747 1.400927 5.496951 5.669097 1.807500 2.184590 -1.771015 0.357162 2.550509 0.455502 -4.513858 -0.481675 8.402367 -0.365037 -3.892080 -1.077788 10.477457 0.665869 2.321288 4.330439 -60.574261 19.369526 -14.274386 2.548332 8.184913 -36.134617 -20.325222 0.438627 -10.924978 0.695636 -1.585774 -4.501490 55.693069 10.339636 7.863295 0.769380 3.445673 27.266579 21.242311 -1.492571 -20.912966 1.792603 -7.458854 -1.206590 8.050673 11.917916 8.630868 -1.872751 -0.675099 11.260180 -8.754156 -2.238895 0.037648 -0.905904 -15.123405 -0.687140 1.002402 25.037991 -9.152875 4.283109 -9.709297 -0.503406 -2.678642 0.518161 0.271607 -0.505555 
-3.952152 47.706821 9.448689 0.006422 20.609295 -0.022229 -3.543005 -20.628284 0.518930 14.670276 1.538652 5.232853 5.904921 1.943381 2.100765 -1.882013 0.456768 2.547650 0.320625 -4.630081 -0.687399 8.280532 -0.468421 -3.473914 -1.267429 10.624571 0.683936 2.822435 4.782557 -60.316639 19.311722 -14.658888 2.224742 8.052834 -36.123676 -20.311655 0.212722 -10.799408 0.831700 -1.293843 -4.577690 55.579643 11.204192 7.437053 0.271892 3.395775 27.253492 21.974503 -1.422397 -20.398655 1.852610 -7.699084 -1.460032 7.235168 10.877338 8.853207 -1.831938 -2.054432 10.997455 -8.771320 -1.543374 -0.127008 -0.927126 -15.968179 -0.600223 0.723516 25.215303 -9.473479 4.537138 -9.054069 -0.496890 -2.793512 0.438380 0.159674 -0.391432 
-3.833223 47.763638 9.082691 0.014472 20.782574 -0.025218 -3.736920 -20.276415 0.304298 14.910010 1.757721 4.877861 5.858307 2.205484 2.018497 -1.790020 0.372080 2.428723 0.279162 -5.037112 -0.860609 8.008377 -0.290559 -3.069103 -1.090898 10.670572 0.560902 2.813918 5.049715 -60.239540 19.339859 -14.982745 1.954756 7.789023 -36.219566 -20.210693 0.075339 -10.718746 0.750014 -0.665041 -5.128565 55.875847 12.130195 7.195937 -0.372884 3.477265 27.102173 22.327337 -1.333043 -20.223164 1.782620 -7.957367 -1.213724 6.693705 9.796734 8.566340 -1.802804 -2.644026 10.359165 -8.562328 -1.208834 -0.166381 -0.863235 -16.316629 -0.622083 0.643432 24.963465 -9.448202 4.468590 -8.533484 -0.878060 -2.677401 0.496809 0.280443 -0.519192 
-3.677577 47.807510 8.794286 0.013104 20.466829 -0.029202 -3.855799 -19.366392 0.234938 14.964872 1.746959 4.457784 6.019579 2.295163 1.822765 -1.875106 0.463021 2.378307 0.207781 -5.080644 -0.871170 7.935278 -0.343344 -2.772946 -1.177474 11.062246 0.405159 3.282006 5.461264 -59.691730 19.011774 -16.089043 1.303900 7.666894 -36.264469 -19.957060 -0.082010 -10.395317 0.724380 -0.180078 -5.303336 55.845852 13.018022 6.523133 -0.745206 3.977773 27.200254 22.634850 -1.411365 -19.300823 1.691619 -8.338750 -1.112870 5.943143 9.855270 7.962160 -1.636998 -3.736087 9.653027 -7.917788 -0.816250 -0.078105 -0.930458 -16.833492 -0.653684 0.473686 25.167240 -9.751027 4.525984 -8.064714 -0.963625 -2.757410 0.455961 0.107098 -0.464207 
-3.412155 47.830879 8.902246 0.009391 20.283886 -0.020548 -3.945607 -18.742128 0.171674 15.116965 1.897861 3.853483 5.969456 2.485461 1.623030 -1.735512 0.485232 2.276742 0.220424 -5.190880 -0.785873 7.924530 -0.438525 -2.412988 -0.977934 11.361381 0.355309 3.242573 5.655704 -59.469315 19.154259 -16.751049 0.948050 7.513081 -36.407261 -19.733747 0.024670 -10.281200 0.637089 0.290433 -5.661631 56.080250 14.376016 6.121178 -1.440061 3.999113 26.986134 23.230276 -1.382776 -18.700409 1.581399 -8.652519 -0.779344 5.331333 9.976062 7.207465 -1.416851 -4.084745 9.069950 -7.357748 -0.696157 0.035581 -0.774664 -16.680149 -0.627206 0.237392 25.293016 -9.971193 4.484566 -8.079920 -0.966453 -2.524709 0.286224 0.100624 -0.465708 
-3.049130 47.902084 9.272239 0.018478 19.731968 -0.028942 -3.660527 -17.786949 0.318207 14.968540 1.888037 3.000832 6.069829 2.541823 1.290924 -1.674167 0.582384 2.016818 0.115271 -5.567953 -0.380959 7.781655 -0.322487 -2.153640 -0.795052 11.961780 0.021429 3.265143 5.824332 -58.632027 19.133631 -18.178272 0.390873 7.512402 -36.178860 -19.336418 -0.019909 -9.827082 0.725494 0.826328 -6.052472 56.019585 15.693282 5.591578 -1.732323 4.006819 26.990498 24.002325 -1.149031 -17.738684 1.566934 -9.507490 -0.637804 4.613689 10.836694 6.816765 -1.144145 -4.369236 8.228915 -6.397712 -0.413562 0.007201 -0.843368 -16.644648 -0.659631 -0.114389 25.720892 -10.029968 4.541164 -8.175681 -1.464849 -2.153521 -0.026574 -0.015239 -0.418467 
-2.570332 47.967644 9.850144 0.013786 19.608908 -0.026102 -3.409532 -17.181513 0.402445 14.891475 1.986422 2.216323 5.967067 2.702879 0.846975 -1.472719 0.490361 1.719500 0.026422 -6.041828 -0.149684 7.688640 -0.076016 -1.581800 -0.623820 12.151393 -0.173466 2.979672 5.724285 -57.917824 19.408981 -18.996096 -0.157876 7.319685 -36.493511 -19.093088 0.184575 -9.704957 0.897629 1.895182 -6.848698 55.870960 17.199242 5.958902 -1.841806 4.141702 26.717789 24.512312 -0.782283 -17.255354 1.636697 -10.197865 -0.035278 4.087914 11.579604 6.045109 -1.090012 -4.246506 7.630097 -5.461212 -0.035704 0.042312 -0.651889 -16.154587 -0.628700 -0.751053 25.531462 -9.874515 4.533874 -8.416046 -2.013547 -1.565104 -0.277668 0.039655 -0.442368 
-2.075208 47.964184 10.461371 0.015847 19.163645 -0.029313 -3.031298 -16.419302 0.671734 14.888490 1.964260 1.216635 5.941140 2.808662 0.436043 -1.534343 0.472168 1.373518 0.094197 -6.316081 0.048688 7.484396 -0.076242 -0.733153 -0.423148 12.150710 -0.205564 2.574894 5.713004 -57.526768 19.156574 -19.984198 -0.835821 7.648524 -36.515804 -18.314726 -0.049951 -9.338981 0.998591 3.094842 -7.469936 55.405998 18.383133 6.111691 -1.718411 4.150735 26.998911 25.187658 -0.587146 -16.561205 1.539219 -11.016469 0.226167 3.516319 12.513718 5.826347 -0.833667 -3.722880 6.994136 -4.357070 0.333635 0.015017 -0.824688 -15.662742 -0.463523 -1.118818 25.817427 -9.565202 4.549094 -8.844748 -2.572238 -1.195940 -0.549418 -0.000082 -0.296321 
-1.516114 47.977650 11.037285 0.012146 18.883728 -0.032731 -2.985694 -15.805281 0.671595 15.012259 1.987852 0.456329 5.905412 2.834531 0.001891 -1.574095 0.452971 0.923832 0.124301 -6.378824 0.311858 7.566972 0.232616 -0.002536 -0.480029 12.218133 -0.136428 2.402433 5.499812 -57.081966 19.344006 -20.619253 -1.111495 7.696374 -36.845848 -17.982491 0.000752 -9.153529 0.996582 4.244557 -8.138025 55.077114 19.541269 6.811285 -1.242372 3.903953 27.015259 25.588833 -0.462333 -15.969844 1.461979 -11.267920 0.445561 3.055103 13.180569 5.188199 -0.743373 -3.326210 6.921784 -3.406393 0.687107 -0.052328 -0.629632 -15.095140 -0.374609 -1.737695 25.834375 -9.347745 4.497458 -9.196633 -3.058805 -0.550095 -0.763303 -0.109285 -0.225416 
-0.898245 47.990814 11.674548 0.020887 18.688385 -0.032086 -2.702284 -15.249488 0.606742 14.988042 1.881812 -0.553013 5.927270 2.860319 -0.488784 -1.567631 0.371541 0.722021 0.259932 -6.368214 0.380757 7.618211 0.094467 1.013749 -0.275495 12.157412 0.195437 1.818208 5.007129 -57.030231 19.293144 -20.866379 -0.885971 7.933271 -36.924770 -17.536272 -0.150718 -9.060716 0.996396 5.657354 -8.861904 54.998142 20.348356 7.806440 -0.475952 3.773540 27.360106 25.921082 -0.220333 -15.523025 1.165078 -11.148289 0.349476 2.653557 13.588496 4.835314 -0.440804 -3.239585 7.123236 -2.813031 0.516626 0.050828 -0.615843 -14.654274 -0.292002 -2.122057 26.201256 -9.209902 4.408424 -9.412008 -3.564701 0.319455 -1.243831 0.006011 -0.194929 
